# xmcd CD database file
#
# Track frame offsets:
#	150
#	19507
#	39339
#	51801
#	69474
#	89663
#
# Disc length: 1485 seconds
#
# Revision: 0
# Processed by: cddbd v1.5.1PL2 Copyright (c) Steve Scherf et al.
# Submitted via: CDex 1.51
#
DISCID=4505cb06
DTITLE=ロクセンチ - continue
DYEAR=1900
DGENRE=Pop
TTITLE0=レイトショーを観にいこう
TTITLE1=my life your life
TTITLE2=baby blue
TTITLE3=青春レシピ
TTITLE4=Viva！Everyday！！
TTITLE5=きみんちにいく
EXTD=
EXTT0=
EXTT1=
EXTT2=
EXTT3=
EXTT4=
EXTT5=
PLAYORDER=
